<?xml version="1.0" encoding="UTF-8"?>
<svg width="50px" height="52px" viewBox="0 0 50 52" version="1.1" xmlns="http://www.w3.org/2000/svg" xmlns:xlink="http://www.w3.org/1999/xlink">
    <!-- Generator: Sketch 53.2 (72643) - https://sketchapp.com -->
    <title>symbollogo/white</title>
    <desc>Created with Sketch.</desc>
    <g id="Symbols" stroke="none" stroke-width="1" fill="none" fill-rule="evenodd">
        <g id="symbollogo/white" fill="#FFFFFF">
            <path d="M49.1980945,34.6462587 C48.6112361,33.4725419 47.7309486,32.3966349 46.1659929,31.7119668 C44.2097983,30.8316792 41.4721039,31.5163473 40.2005774,32.7878738 C38.4390242,34.6462587 38.537812,37.1893117 39.5159093,38.5586479 C40.6896261,40.3192231 43.3295107,40.6126523 44.9922761,39.3411258 C44.6020153,39.8301744 44.1129666,40.2214133 43.623918,40.5148425 C43.3295107,40.6126523 43.1348693,40.8082717 42.840462,40.8082717 C42.5470328,40.9060814 42.2536037,41.0038912 41.8623647,41.0038912 C41.1786747,41.1017009 40.4940066,41.1017009 39.8083604,40.9060814 C38.8742775,40.7055715 37.9069392,40.3094421 37.1000089,39.7450799 C37.6193786,36.9359845 37.9480193,34.1542757 37.8658591,32.1012495 C42.0413565,29.7919618 44.6851536,25.8463172 44.7966566,19.9747991 C44.8954445,17.4317461 44.307608,14.204025 43.5251301,12.1500206 C46.3625904,11.1719233 48.4156167,9.5091579 47.926568,9.02010925 C43.0360815,3.73838379 35.0156836,0.510662679 26.7018565,0.804091871 C22.9850867,0.901901602 19.1714853,1.78218918 16.334025,3.4449546 C13.0084942,0.706282141 7.82457845,-0.663054089 7.3355298,0.315043218 C6.74964951,1.48875999 8.02019792,8.13982167 9.58515361,11.2697331 C8.6070563,13.3237374 7.82457845,16.6492682 7.92336628,19.9747991 C7.99281119,23.8725169 9.09708305,26.848867 10.9329717,29.080885 C7.44116431,29.8340199 3.70776689,31.4977635 -0.0002,34.6462587 C2.55654636,34.6462587 4.73379096,34.9142573 6.3183086,35.2820219 C4.92354184,36.7521022 3.52975318,38.4774658 2.15161407,40.5148425 C6.74964951,38.8520771 10.1729901,38.8520771 11.1510874,39.0476966 C12.1673305,39.2169074 14.353378,39.1611559 15.7481447,37.8749579 C16.5501845,42.6216641 18.2295776,47.8583971 19.2683169,50.1001961 C19.660534,50.882674 20.0507948,51.1761032 20.4430118,51.1761032 C20.8332726,51.1761032 21.1276799,50.882674 21.6167286,49.9045767 C22.1057772,48.6330502 23.1807062,46.9702847 23.1807062,46.9702847 C23.4741354,47.0680945 25.0400691,47.3615237 26.8006443,47.3615237 C28.7568389,47.3615237 29.9305557,47.1659042 30.3208165,46.9702847 C30.7130335,47.4593334 31.2989138,48.6330502 31.8867503,49.9045767 C32.2770111,50.882674 32.5704403,51.1761032 33.059489,51.1761032 C33.5485376,51.1761032 33.8429449,50.882674 34.2332057,50.1001961 C34.909071,48.6428311 35.7658842,45.8376481 36.4789172,42.7341453 C37.1645634,43.3611057 37.9265012,43.9029716 38.8302631,44.2316123 C39.8083604,44.6228512 40.9830552,44.9162804 42.156772,44.9162804 C42.7426523,44.9162804 43.3295107,44.9162804 43.9173472,44.8184707 C44.5032275,44.7206609 45.0910639,44.5250415 45.6769442,44.2316123 C46.7528513,43.7425636 47.7309486,42.8622761 48.5144045,41.9819885 C49.2968824,41.0038912 49.785931,39.8301744 49.9815505,38.5586479 C50.0783821,37.1893117 49.785931,35.7221657 49.1980945,34.6462587"></path>
        </g>
    </g>
</svg>